<svg width="212" height="40" viewBox="0 0 212 40" fill="none" xmlns="http://www.w3.org/2000/svg">
<path d="M40.8604 0.350175L28.7244 21.961C27.8739 23.5018 27.0135 24.2721 26.1631 24.2721C25.3127 24.2721 24.4522 23.5017 23.6018 21.971L20.3001 15.8979L16.9385 21.961C16.088 23.5018 15.2376 24.2721 14.3872 24.2721C13.5368 24.2721 12.6863 23.5018 11.8359 21.961L0 0.350175H5.31266L14.4872 17.4887L17.7989 11.3157L11.7959 0.350175H17.0785L26.2931 17.4987L35.6078 0.350175H40.8604Z" fill="#003087"/>
<path d="M63.4817 23.9019H43.1416V0.350175H63.4817V4.44222H47.2436V19.7899H63.4817V23.9019ZM62.4212 13.997H48.9645V9.89495H62.4112V13.997H62.4212Z" fill="#003087"/>
<path d="M87.2736 23.9019H66.9735V0.350175H71.0655V19.7999H87.2736V23.9019Z" fill="#003087"/>
<path d="M109.625 23.9019H89.3147V0.350175H93.4167V19.7999H109.625V23.9019Z" fill="#003087"/>
<path d="M147.904 23.932H143.282L139.87 7.45373L131.976 22.6613C131.446 23.6918 130.705 24.2121 129.765 24.2121C128.714 24.2121 127.904 23.6818 127.354 22.6213L119.46 7.45373L116.078 23.932H111.426L116.688 2.31116C116.828 1.69085 117.129 1.15058 117.599 0.690345C118.059 0.24012 118.599 0 119.22 0C120.11 0 120.97 0.78039 121.761 2.33117L129.645 17.7789L137.559 2.32116C138.359 0.78039 139.21 0.010005 140.11 0.010005C140.71 0.010005 141.261 0.250125 141.761 0.74037C142.191 1.18059 142.501 1.70085 142.661 2.32116L147.904 23.932Z" fill="#003087"/>
<path d="M182.561 23.9019L177.269 23.8619L173.327 17.2786H162.151L164.632 13.1766H170.855L166.773 6.4032L156.148 23.9019H150.875L163.672 2.5913C163.992 2.04102 164.442 1.53077 165.023 1.07054C165.713 0.54027 166.333 0.270135 166.883 0.270135C167.484 0.270135 168.104 0.530265 168.744 1.03052C169.295 1.46073 169.745 1.98099 170.085 2.58129L182.561 23.9019Z" fill="#003087"/>
<path d="M211.426 23.932H205.523L197.209 15.3477L188.944 23.932H183.052L194.487 12.1661L183.042 0.350175H188.734L197.209 9.03452L205.693 0.350175H211.386L199.94 12.1661L211.426 23.932Z" fill="#003087"/>
<path d="M58.5793 33.6568H53.6768V35.2676H58.3392C59.0695 35.2676 59.5698 35.3977 59.8199 35.6378C60.08 35.8879 60.2101 36.3582 60.2101 37.0385V38.069C60.2101 38.7494 60.08 39.2096 59.8199 39.4597C59.5598 39.7099 59.0695 39.8299 58.3392 39.8299H53.7269C52.9965 39.8299 52.4962 39.6998 52.2461 39.4597C51.986 39.2096 51.8559 38.7494 51.8559 38.069V37.8689L53.3967 37.5488V38.4292H58.6793V36.7184H54.017C53.2866 36.7184 52.7964 36.5883 52.5463 36.3482C52.2961 36.098 52.1661 35.6378 52.1661 34.9475V34.1171C52.1661 33.4367 52.2961 32.9765 52.5463 32.7164C52.8064 32.4662 53.2966 32.3462 54.017 32.3462H58.2591C58.9595 32.3462 59.4497 32.4662 59.7099 32.7063C59.98 32.9465 60.1101 33.3767 60.1101 33.987V34.1371L58.5693 34.4972V33.6568H58.5793Z" fill="#003087"/>
<path d="M66.6933 32.3462H64.9525V39.8299H66.6933V32.3462Z" fill="#003087"/>
<path d="M71.6258 39.8299V32.3462H72.8164L78.089 36.7584C78.2691 36.9085 78.4292 37.0485 78.5593 37.1786C78.6993 37.3087 78.8194 37.4387 78.9295 37.5788C78.8994 37.1586 78.8794 36.8584 78.8694 36.6883C78.8594 36.5183 78.8594 36.3782 78.8594 36.2881V32.3562H80.4202V39.8399H79.2296L73.7369 35.2176C73.6068 35.0975 73.4867 34.9975 73.3867 34.8974C73.2866 34.8074 73.1966 34.7074 73.1066 34.6073C73.1266 34.8374 73.1466 35.0575 73.1566 35.2576C73.1666 35.4577 73.1766 35.6378 73.1766 35.7879V39.8299H71.6258Z" fill="#003087"/>
<path d="M91.6358 33.6868H86.9435V38.4192H91.6358V36.8084L93.3767 37.1686V38.059C93.3767 38.7394 93.2466 39.2096 92.9865 39.4597C92.7264 39.7099 92.2361 39.8299 91.5158 39.8299H87.0535C86.3232 39.8299 85.8329 39.7099 85.5828 39.4597C85.3327 39.2096 85.2026 38.7494 85.2026 38.059V34.1171C85.2026 33.4367 85.3327 32.9765 85.5828 32.7164C85.8429 32.4662 86.3332 32.3462 87.0535 32.3462H91.5158C92.2361 32.3462 92.7264 32.4762 92.9865 32.7164C93.2466 32.9665 93.3767 33.4267 93.3767 34.1171V34.8274L91.6358 35.1076V33.6868Z" fill="#003087"/>
<path d="M98.089 39.8299V32.3462H105.753V33.6168H99.8399V35.2876H103.292V36.5583H99.8399V38.4192H105.823V39.8299H98.089Z" fill="#003087"/>
<path d="M117.869 39.8299V33.7669H116.278V32.7664L119.45 32.2861V39.8299H117.869Z" fill="#003087"/>
<path d="M133.177 35.7079C133.187 35.6278 133.207 35.5378 133.207 35.4677C133.217 35.3877 133.217 35.3177 133.217 35.2676C133.217 34.5273 133.117 34.077 132.926 33.8969C132.736 33.7169 132.306 33.6268 131.646 33.6268H129.575C129.055 33.6268 128.684 33.6968 128.494 33.8269C128.294 33.957 128.194 34.2071 128.194 34.5673V34.9875C128.194 35.3477 128.304 35.5978 128.524 35.7279C128.744 35.8579 129.195 35.918 129.865 35.918C130.335 35.918 130.855 35.908 131.416 35.8679C131.976 35.8179 132.556 35.7679 133.177 35.7079ZM133.087 36.8484C132.546 36.9385 132.006 36.9985 131.456 37.0385C130.905 37.0785 130.345 37.0985 129.785 37.0985C128.574 37.0985 127.744 36.9585 127.294 36.6783C126.843 36.3982 126.613 35.8979 126.613 35.1776V34.1771C126.613 33.5568 126.823 33.0965 127.234 32.7964C127.644 32.4962 128.294 32.3462 129.165 32.3462H132.326C133.267 32.3462 133.917 32.5063 134.267 32.8364C134.617 33.1666 134.787 33.7669 134.787 34.6473V35.6378C134.787 37.0285 134.307 38.1091 133.347 38.8594C132.386 39.6198 131.025 40 129.265 40C129.125 40 129.004 40 128.934 40C128.864 40 128.794 39.99 128.724 39.98L127.694 38.7794H128.164C129.765 38.7794 130.915 38.6293 131.626 38.3392C132.356 38.049 132.836 37.5588 133.087 36.8484Z" fill="#003087"/>
<path d="M144.912 36.5783H141.081C140.8 36.5783 140.61 36.6283 140.51 36.7184C140.42 36.8084 140.37 36.9885 140.37 37.2686V37.8189C140.37 38.089 140.42 38.2691 140.51 38.3592C140.6 38.4492 140.79 38.4892 141.081 38.4892H144.912C145.203 38.4892 145.393 38.4492 145.483 38.3592C145.573 38.2691 145.623 38.089 145.623 37.8189V37.2686C145.623 36.9885 145.573 36.8084 145.483 36.7184C145.383 36.6183 145.193 36.5783 144.912 36.5783ZM144.742 33.6168H141.251C140.96 33.6168 140.77 33.6668 140.67 33.7569C140.57 33.8469 140.52 34.037 140.52 34.3072V34.6873C140.52 34.9575 140.57 35.1376 140.67 35.2276C140.77 35.3177 140.96 35.3677 141.251 35.3677H144.742C145.023 35.3677 145.213 35.3177 145.313 35.2376C145.413 35.1476 145.453 34.9675 145.453 34.6973V34.3172C145.453 34.037 145.403 33.8569 145.313 33.7669C145.223 33.6668 145.033 33.6168 144.742 33.6168ZM145.323 32.3462C145.993 32.3462 146.453 32.4462 146.683 32.6563C146.913 32.8664 147.034 33.2466 147.034 33.8069V34.4872C147.034 34.9175 146.923 35.2476 146.713 35.4677C146.503 35.6878 146.133 35.8379 145.593 35.938C146.143 35.998 146.553 36.1481 146.813 36.3882C147.074 36.6283 147.204 36.9785 147.204 37.4287V38.2191C147.204 38.8294 147.074 39.2496 146.803 39.4797C146.533 39.7099 146.063 39.8299 145.373 39.8299H140.59C139.91 39.8299 139.44 39.7199 139.18 39.4897C138.919 39.2596 138.779 38.8394 138.779 38.2291V37.4387C138.779 36.9885 138.909 36.6483 139.17 36.3982C139.43 36.1581 139.83 36.008 140.37 35.938C139.84 35.8379 139.47 35.6778 139.25 35.4577C139.029 35.2376 138.929 34.9175 138.929 34.4872V33.8069C138.929 33.2466 139.05 32.8664 139.28 32.6563C139.51 32.4462 139.97 32.3462 140.64 32.3462H145.323Z" fill="#003087"/>
<path d="M153.757 39.95L157.789 33.6168H152.846V35.2276L151.266 34.9575V32.3462H159.57V33.5468L155.658 39.95H153.757Z" fill="#003087"/>
</svg>
